<?xml version="1.0" encoding="utf-8"?>
<!-- Generator: Adobe Illustrator 22.1.0, SVG Export Plug-In . SVG Version: 6.00 Build 0)  -->
<svg version="1.1" id="Calque_2" xmlns="http://www.w3.org/2000/svg" xmlns:xlink="http://www.w3.org/1999/xlink" x="0px" y="0px"
	 viewBox="0 0 1200 700" style="enable-background:new 0 0 1200 700;" xml:space="preserve">
<style type="text/css">
	.st0{fill:#FFFFFF;}
</style>
<g>
	<path class="st0" d="M369.2,486.9c-0.6,0.4-1.6,0.9-2.8,1.5c-1.2,0.6-2.6,1.1-4.2,1.5c-1.6,0.4-3.4,0.6-5.3,0.6
		c-3.2,0-6.1-0.6-8.6-1.7c-2.5-1.1-4.7-2.6-6.5-4.5c-1.8-1.9-3.2-4.1-4.1-6.6c-0.9-2.5-1.4-5.1-1.4-7.9c0-3.1,0.5-6,1.5-8.5
		c1-2.6,2.4-4.8,4.2-6.8c1.8-1.9,4-3.4,6.4-4.5c2.5-1.1,5.2-1.6,8.2-1.6c2.5,0,4.8,0.3,6.8,1c2,0.7,3.8,1.5,5.2,2.3l-2.4,5.6
		c-1.1-0.8-2.5-1.5-4.1-2.2c-1.6-0.7-3.4-1-5.4-1c-2.6,0-5,0.7-7.2,2c-2.2,1.4-3.9,3.2-5.2,5.5c-1.3,2.3-2,4.9-2,7.8
		c0,2.9,0.6,5.5,1.8,7.8c1.2,2.3,2.9,4.1,5.1,5.5c2.2,1.3,4.8,2,7.7,2c2.1,0,4-0.3,5.6-1c1.6-0.6,2.9-1.4,3.9-2.2L369.2,486.9z"/>
	<path class="st0" d="M376.9,490v-44.1h5.6v24.6c0.8-1.5,2.1-2.7,3.7-3.7c1.6-1,3.5-1.4,5.8-1.4c2.2,0,4,0.7,5.5,2
		c1.4,1.3,2.2,3,2.3,5.1V490h-5.7v-15.6c0-1.2-0.4-2.2-1.1-3s-1.7-1.2-3.2-1.2c-2,0-3.7,0.8-5,2.5c-1.3,1.7-2,3.8-2,6.4V490H376.9z"
		/>
	<path class="st0" d="M418.7,490.6c-2.2,0-4.3-0.5-6.1-1.4s-3.3-2.3-4.3-4.2c-1.1-1.8-1.6-4.1-1.6-6.8c0-2.7,0.6-4.9,1.7-6.8
		c1.1-1.9,2.6-3.4,4.4-4.4c1.8-1,3.8-1.6,6-1.6c2.2,0,4,0.4,5.5,1.3c1.4,0.9,2.6,2,3.4,3.2l0.4-3.6h5.3V490h-5.7v-3.7
		c-0.4,0.5-1,1.1-1.9,1.8c-0.8,0.7-1.8,1.3-3,1.8C421.5,490.3,420.2,490.6,418.7,490.6z M420.2,485.9c1.9,0,3.4-0.5,4.8-1.5
		c1.3-1,2.2-2.4,2.6-4.1v-4.9c-0.5-1.6-1.4-2.8-2.8-3.9c-1.4-1-3-1.5-4.8-1.5c-1.4,0-2.6,0.3-3.7,1c-1.1,0.7-2,1.6-2.7,2.8
		c-0.7,1.2-1,2.6-1,4.1c0,1.5,0.3,2.9,1.1,4.1c0.7,1.2,1.6,2.2,2.8,2.9C417.6,485.5,418.8,485.9,420.2,485.9z"/>
	<path class="st0" d="M442.3,445.9h5.7V490h-5.7V445.9z"/>
	<path class="st0" d="M457,445.9h5.7V490H457V445.9z"/>
	<path class="st0" d="M482.8,490.6c-2.7,0-5.1-0.5-7-1.6c-2-1.1-3.5-2.6-4.5-4.5c-1.1-1.9-1.6-4.1-1.6-6.5c0-2.3,0.6-4.5,1.8-6.4
		c1.2-1.9,2.8-3.4,4.8-4.6c2-1.1,4.2-1.7,6.7-1.7c3.2,0,5.8,0.9,7.9,2.8c2.1,1.8,3.5,4.4,4.2,7.8l-18.6,6.4c0.7,1.1,1.6,2,2.7,2.6
		c1.1,0.6,2.4,0.9,3.7,0.9c1,0,2-0.2,3-0.5c0.9-0.3,1.8-0.8,2.7-1.5l2.6,4.3c-1.2,0.8-2.6,1.4-4,1.9
		C485.7,490.3,484.2,490.6,482.8,490.6z M475.3,477.6c0,0.4,0,0.8,0.1,1.2l13.2-4.8c-0.5-1.1-1.2-2.1-2.2-2.9
		c-1-0.8-2.3-1.3-3.9-1.3c-2.1,0-3.9,0.7-5.2,2.2C476,473.5,475.3,475.3,475.3,477.6z"/>
	<path class="st0" d="M506.7,466.3l0.4,4.5c0.8-1.7,2-3,3.6-4c1.7-1,3.6-1.5,5.9-1.5c2.2,0,4,0.7,5.5,2c1.4,1.3,2.2,3,2.3,5.1V490
		h-5.7v-15.6c0-1.2-0.4-2.2-1.1-3s-1.7-1.2-3.2-1.2c-2,0-3.7,0.8-5,2.5c-1.3,1.7-2,3.8-2,6.4V490h-5.7v-23.7H506.7z"/>
	<path class="st0" d="M544.9,501.8c-2.7,0-5-0.5-6.7-1.4c-1.7-0.9-3.4-2.1-4.8-3.4l3.4-3.9c1.2,1.1,2.4,2,3.7,2.7
		c1.3,0.6,2.7,1,4.3,1c2.5,0,4.5-0.6,5.9-1.8c1.4-1.2,2.1-2.8,2.2-4.9v-4.3c-0.8,1.4-2,2.6-3.7,3.5c-1.6,0.9-3.6,1.4-5.9,1.4
		c-2.2,0-4.2-0.5-6-1.6c-1.8-1.1-3.3-2.6-4.4-4.5c-1.1-1.9-1.6-4-1.6-6.4c0-2.5,0.6-4.6,1.7-6.6c1.2-1.9,2.7-3.4,4.6-4.5
		c1.9-1.1,3.9-1.6,6.1-1.6c2.1,0,4,0.4,5.7,1.2c1.7,0.8,2.9,1.8,3.7,2.9l0.4-3.1h5.3v23.9c0,2.2-0.6,4.1-1.7,5.9
		c-1.1,1.8-2.7,3.2-4.8,4.2C550.1,501.3,547.7,501.8,544.9,501.8z M537.1,477.8c0,1.5,0.3,2.9,1.1,4.1c0.7,1.2,1.6,2.2,2.8,2.9
		c1.2,0.7,2.5,1.1,4,1.1c2,0,3.7-0.5,5.1-1.6c1.4-1,2.4-2.4,2.9-4v-4.9c-0.5-1.6-1.5-2.9-2.9-3.9c-1.4-1-3.1-1.5-5-1.5
		c-1.5,0-2.8,0.3-4,1c-1.2,0.7-2.1,1.6-2.8,2.8C537.4,475,537.1,476.3,537.1,477.8z"/>
	<path class="st0" d="M578.8,490.6c-2.7,0-5.1-0.5-7-1.6c-2-1.1-3.5-2.6-4.5-4.5c-1.1-1.9-1.6-4.1-1.6-6.5c0-2.3,0.6-4.5,1.8-6.4
		c1.2-1.9,2.8-3.4,4.8-4.6c2-1.1,4.2-1.7,6.7-1.7c3.2,0,5.8,0.9,7.9,2.8c2.1,1.8,3.5,4.4,4.2,7.8l-18.6,6.4c0.7,1.1,1.6,2,2.7,2.6
		c1.1,0.6,2.4,0.9,3.7,0.9c1,0,2-0.2,3-0.5c0.9-0.3,1.8-0.8,2.7-1.5l2.6,4.3c-1.2,0.8-2.6,1.4-4,1.9
		C581.6,490.3,580.2,490.6,578.8,490.6z M571.3,477.6c0,0.4,0,0.8,0.1,1.2l13.2-4.8c-0.5-1.1-1.2-2.1-2.2-2.9
		c-1-0.8-2.3-1.3-3.9-1.3c-2.1,0-3.9,0.7-5.2,2.2C572,473.5,571.3,475.3,571.3,477.6z"/>
	<path class="st0" d="M616,490.6c-2.7,0-5.1-0.5-7-1.6c-2-1.1-3.5-2.6-4.5-4.5c-1.1-1.9-1.6-4.1-1.6-6.5c0-2.3,0.6-4.5,1.8-6.4
		c1.2-1.9,2.8-3.4,4.8-4.6c2-1.1,4.2-1.7,6.7-1.7c3.2,0,5.8,0.9,7.9,2.8c2.1,1.8,3.5,4.4,4.2,7.8l-18.6,6.4c0.7,1.1,1.6,2,2.7,2.6
		c1.1,0.6,2.4,0.9,3.7,0.9c1,0,2-0.2,3-0.5c0.9-0.3,1.8-0.8,2.7-1.5l2.6,4.3c-1.2,0.8-2.6,1.4-4,1.9
		C618.8,490.3,617.4,490.6,616,490.6z M608.5,477.6c0,0.4,0,0.8,0.1,1.2l13.2-4.8c-0.5-1.1-1.2-2.1-2.2-2.9s-2.3-1.3-3.9-1.3
		c-2.1,0-3.9,0.7-5.2,2.2C609.2,473.5,608.5,475.3,608.5,477.6z"/>
	<path class="st0" d="M643.7,490.7l-13.4-24.4h6.8l6.9,14.5l6.4-14.5h6.4L644,490.7H643.7z"/>
	<path class="st0" d="M672.8,490.6c-2.7,0-5.1-0.5-7-1.6c-2-1.1-3.5-2.6-4.5-4.5c-1.1-1.9-1.6-4.1-1.6-6.5c0-2.3,0.6-4.5,1.8-6.4
		c1.2-1.9,2.8-3.4,4.8-4.6c2-1.1,4.2-1.7,6.7-1.7c3.2,0,5.8,0.9,7.9,2.8c2.1,1.8,3.5,4.4,4.2,7.8l-18.6,6.4c0.7,1.1,1.6,2,2.7,2.6
		c1.1,0.6,2.4,0.9,3.7,0.9c1,0,2-0.2,3-0.5c0.9-0.3,1.8-0.8,2.7-1.5l2.6,4.3c-1.2,0.8-2.6,1.4-4,1.9
		C675.6,490.3,674.2,490.6,672.8,490.6z M665.3,477.6c0,0.4,0,0.8,0.1,1.2l13.2-4.8c-0.5-1.1-1.2-2.1-2.2-2.9s-2.3-1.3-3.9-1.3
		c-2.1,0-3.9,0.7-5.2,2.2C665.9,473.5,665.3,475.3,665.3,477.6z"/>
	<path class="st0" d="M696.6,466.3l0.5,5.6c0.7-1.4,1.6-2.5,2.7-3.5c1.1-1,2.3-1.7,3.5-2.3s2.3-0.8,3.2-0.8l-0.3,5.7
		c-1.8-0.1-3.3,0.2-4.7,1c-1.3,0.8-2.4,1.9-3.2,3.2c-0.8,1.3-1.1,2.7-1.1,4.3V490h-5.7v-23.7H696.6z"/>
	<path class="st0" d="M715.1,501.4l5.5-12.2l-11-23h6.4l7.4,16.4l7.3-16.4h5.3l-15.3,35.2H715.1z"/>
	<path class="st0" d="M743.8,455.9h5.8v10.5h6.4v4.5h-6.4V490h-5.8v-19.2h-4.2v-4.5h4.2V455.9z"/>
	<path class="st0" d="M762.2,490v-44.1h5.6v24.6c0.8-1.5,2.1-2.7,3.7-3.7c1.6-1,3.5-1.4,5.8-1.4c2.2,0,4,0.7,5.5,2
		c1.4,1.3,2.2,3,2.3,5.1V490h-5.7v-15.6c0-1.2-0.4-2.2-1.1-3s-1.7-1.2-3.2-1.2c-2,0-3.7,0.8-5,2.5c-1.3,1.7-2,3.8-2,6.4V490H762.2z"
		/>
	<path class="st0" d="M793.8,457.7c0-0.9,0.3-1.6,1.1-2.2c0.7-0.6,1.5-0.9,2.3-0.9c0.8,0,1.6,0.3,2.3,0.9s1,1.3,1,2.2
		c0,0.9-0.3,1.7-1,2.3s-1.4,0.9-2.3,0.9c-0.8,0-1.6-0.3-2.3-0.9C794.1,459.4,793.8,458.7,793.8,457.7z M794,466.3h5.7V490H794V466.3
		z"/>
	<path class="st0" d="M813.9,466.3l0.4,4.5c0.8-1.7,2-3,3.6-4c1.7-1,3.6-1.5,5.9-1.5c2.2,0,4,0.7,5.5,2c1.4,1.3,2.2,3,2.3,5.1V490
		h-5.7v-15.6c0-1.2-0.4-2.2-1.1-3s-1.7-1.2-3.2-1.2c-2,0-3.7,0.8-5,2.5c-1.3,1.7-2,3.8-2,6.4V490h-5.7v-23.7H813.9z"/>
	<path class="st0" d="M852.2,501.8c-2.7,0-5-0.5-6.7-1.4s-3.4-2.1-4.8-3.4l3.4-3.9c1.2,1.1,2.4,2,3.7,2.7c1.3,0.6,2.7,1,4.3,1
		c2.5,0,4.5-0.6,5.9-1.8c1.4-1.2,2.1-2.8,2.2-4.9v-4.3c-0.8,1.4-2,2.6-3.7,3.5c-1.6,0.9-3.6,1.4-5.9,1.4c-2.2,0-4.2-0.5-6-1.6
		c-1.8-1.1-3.3-2.6-4.4-4.5c-1.1-1.9-1.6-4-1.6-6.4c0-2.5,0.6-4.6,1.7-6.6c1.2-1.9,2.7-3.4,4.6-4.5c1.9-1.1,3.9-1.6,6.1-1.6
		c2.1,0,4,0.4,5.7,1.2c1.7,0.8,2.9,1.8,3.7,2.9l0.4-3.1h5.3v23.9c0,2.2-0.6,4.1-1.7,5.9c-1.1,1.8-2.7,3.2-4.8,4.2
		C857.3,501.3,854.9,501.8,852.2,501.8z M844.3,477.8c0,1.5,0.3,2.9,1.1,4.1c0.7,1.2,1.6,2.2,2.8,2.9c1.2,0.7,2.5,1.1,4,1.1
		c2,0,3.7-0.5,5.1-1.6c1.4-1,2.4-2.4,2.9-4v-4.9c-0.5-1.6-1.5-2.9-2.9-3.9c-1.4-1-3.1-1.5-5-1.5c-1.5,0-2.8,0.3-4,1
		c-1.2,0.7-2.1,1.6-2.8,2.8C844.7,475,844.3,476.3,844.3,477.8z"/>
</g>
</svg>
