<?xml version="1.0" encoding="utf-8"?>
<!-- Generator: Adobe Illustrator 22.1.0, SVG Export Plug-In . SVG Version: 6.00 Build 0)  -->
<svg version="1.1" id="Calque_2_1_" xmlns="http://www.w3.org/2000/svg" xmlns:xlink="http://www.w3.org/1999/xlink" x="0px"
	 y="0px" viewBox="0 0 1200 700" style="enable-background:new 0 0 1200 700;" xml:space="preserve">
<style type="text/css">
	.st0{fill:#FFFFFF;}
	.st1{fill:#FFFFFF;stroke:#FFFFFF;stroke-miterlimit:10;}
	.st2{fill:#FF4204;}
	.st3{enable-background:new    ;}
</style>
<circle class="st0" cx="602.1" cy="287.8" r="83.4"/>
<path class="st1" d="M602.1,287.8"/>
<g>
	<polygon class="st2" points="567.6,277.3 589.4,277.3 598,265.2 549.9,265.2 541.3,277.3 553.3,277.3 536.7,302.5 551.7,302.5 	"/>
	<polygon class="st2" points="627.9,238.8 667.4,301.9 653.1,301.9 644.9,289.3 623.3,289.3 630.2,277.8 637.5,277.8 627.9,262.9 
		603.8,302.5 589.6,302.5 	"/>
	<polygon class="st2" points="617,239.4 565.9,239.4 557.3,251.5 609.5,251.5 	"/>
</g>
<g class="st3">
	<path class="st2" d="M538.6,328.4c-1.4-0.4-2.5-1-3.4-1.7l1.3-2.9c0.8,0.6,1.8,1.2,3,1.6c1.2,0.4,2.4,0.6,3.5,0.6
		c1.5,0,2.6-0.2,3.3-0.7c0.7-0.5,1.1-1.1,1.1-1.9c0-0.6-0.2-1-0.6-1.4c-0.4-0.4-0.9-0.7-1.5-0.9c-0.6-0.2-1.5-0.4-2.5-0.7
		c-1.5-0.4-2.7-0.7-3.7-1.1c-0.9-0.4-1.7-0.9-2.4-1.7c-0.7-0.8-1-1.8-1-3.1c0-1.1,0.3-2.1,0.9-3c0.6-0.9,1.5-1.6,2.7-2.1
		c1.2-0.5,2.7-0.8,4.4-0.8c1.2,0,2.4,0.2,3.6,0.5c1.2,0.3,2.2,0.7,3,1.3l-1.2,2.9c-0.9-0.5-1.8-0.9-2.7-1.2
		c-0.9-0.3-1.9-0.4-2.7-0.4c-1.5,0-2.5,0.2-3.2,0.7c-0.7,0.5-1.1,1.1-1.1,1.9c0,0.6,0.2,1,0.6,1.4c0.4,0.4,0.9,0.6,1.5,0.8
		s1.5,0.4,2.5,0.7c1.5,0.3,2.7,0.7,3.6,1.1c0.9,0.4,1.7,0.9,2.4,1.7c0.7,0.8,1,1.8,1,3.1c0,1.1-0.3,2.1-0.9,3
		c-0.6,0.9-1.5,1.6-2.7,2.1c-1.2,0.5-2.7,0.8-4.4,0.8C541.5,329,540,328.8,538.6,328.4z"/>
	<path class="st2" d="M554.6,309h3.7v19.8h-3.7V309z"/>
	<path class="st2" d="M581.8,328.8l0-13.1l-6.5,10.8h-1.6l-6.5-10.7v12.9h-3.5V309h3l7.9,13.1l7.7-13.1h3l0,19.8H581.8z"/>
	<path class="st2" d="M603.3,309.8c1.3,0.6,2.2,1.4,2.9,2.4c0.7,1.1,1,2.3,1,3.8c0,1.4-0.3,2.7-1,3.7c-0.7,1.1-1.7,1.9-2.9,2.4
		s-2.8,0.8-4.5,0.8h-4.5v5.7h-3.7V309h8.1C600.5,309,602,309.3,603.3,309.8z M602.3,318.9c0.8-0.7,1.2-1.6,1.2-2.9s-0.4-2.2-1.2-2.9
		c-0.8-0.7-2-1-3.6-1h-4.3v7.9h4.3C600.2,319.9,601.4,319.6,602.3,318.9z"/>
	<path class="st2" d="M610.9,309h3.7v16.7h10.3v3.1h-14V309z"/>
	<path class="st2" d="M631.2,327.7c-1.6-0.9-2.9-2.1-3.8-3.6c-0.9-1.6-1.4-3.3-1.4-5.2c0-1.9,0.5-3.7,1.4-5.2
		c0.9-1.6,2.2-2.8,3.8-3.6c1.6-0.9,3.4-1.3,5.5-1.3s3.8,0.4,5.5,1.3c1.6,0.9,2.9,2.1,3.8,3.6s1.4,3.3,1.4,5.2c0,1.9-0.5,3.7-1.4,5.2
		c-0.9,1.5-2.2,2.8-3.8,3.6c-1.6,0.9-3.4,1.3-5.5,1.3S632.8,328.6,631.2,327.7z M640.2,324.9c1.1-0.6,1.9-1.4,2.5-2.5
		s0.9-2.3,0.9-3.6c0-1.3-0.3-2.5-0.9-3.6c-0.6-1.1-1.4-1.9-2.5-2.5s-2.2-0.9-3.6-0.9s-2.5,0.3-3.6,0.9s-1.9,1.4-2.5,2.5
		c-0.6,1.1-0.9,2.3-0.9,3.6c0,1.3,0.3,2.5,0.9,3.6s1.4,1.9,2.5,2.5s2.2,0.9,3.6,0.9S639.2,325.5,640.2,324.9z"/>
	<path class="st2" d="M668.8,309v19.8h-3l-10.9-13.4v13.4h-3.6V309h3l10.9,13.4V309H668.8z"/>
</g>
</svg>
