<?xml version="1.0" encoding="utf-8"?>
<!-- Generator: Adobe Illustrator 22.1.0, SVG Export Plug-In . SVG Version: 6.00 Build 0)  -->
<svg version="1.1" id="Calque_1" xmlns="http://www.w3.org/2000/svg" xmlns:xlink="http://www.w3.org/1999/xlink" x="0px" y="0px"
	 viewBox="0 0 3840 2160" style="enable-background:new 0 0 3840 2160;" xml:space="preserve">
<style type="text/css">
	.st0{fill:#FFFFFF;}
	.st1{font-family:'MyriadPro-Regular';}
	.st2{font-size:152.5229px;}
</style>
<g>
	<path class="st0" d="M1377.1,1091.9l70.1-116l-120.4-435.7L875.7,654L810,774.4l-146.7-2.2l-321.9,319.7l324,324h137.9l70.1,111.7
		l455.4,122.6l120.4-448.8L1377.1,1091.9z M814.4,787.5l354.7-92l-201.4,343.7l-405.1,4.4L814.4,787.5z M814.4,1396.2l-249.6-249.6
		h402.9l203.6,343.7L814.4,1396.2z M1263.3,1431.2L1061.9,1094l199.2-341.6l102.9,345.9L1263.3,1431.2z"/>
</g>
<g>
	<path class="st0" d="M1838.4,1216c0,28.1,7.2,49.8,21.5,65.1c14.3,15.3,34.5,23,60.5,23c25.8,0,45.7-6.8,59.9-20.5
		c14.2-13.7,21.3-33.1,21.3-58.4l5.4,83.9c-8.2,19.8-21.6,36.5-40.2,49.9s-41.4,20.1-68.4,20.1c-44.3,0-78.5-14.2-102.6-42.7
		s-36.1-68.6-36.1-120.4V972h78.9v244H1838.4z M2001.5,972h78.5v401.3h-78.5V972z"/>
	<path class="st0" d="M2160.3,972h78.9v401.3h-78.9V972z M2399.9,1130.1c0-28.4-7-50.3-20.9-65.7c-13.9-15.5-33.6-23.2-59.1-23.2
		c-25.8,0-45.7,6.8-59.7,20.5c-14.1,13.7-21.1,32.9-21.1,57.6l-8.1-77.3c12.4-24.2,28.5-42.9,48.5-56.1c20-13.1,42.1-19.7,66.3-19.7
		c28.1,0,52.1,6.4,71.9,19.1c19.8,12.8,35,31.4,45.4,55.9c10.4,24.5,15.7,54,15.7,88.5v243.6h-78.9L2399.9,1130.1L2399.9,1130.1z
		 M2639.6,1130.1c0-28.4-7.3-50.3-22-65.7c-14.7-15.5-35.3-23.2-61.9-23.2c-24.5,0-43.4,7.5-56.8,22.4
		c-13.4,14.9-20.1,36.1-20.1,63.4l-15.8-77.3c12.6-26.5,29.3-47.1,50.1-61.7c20.7-14.6,43.6-21.8,68.6-21.8c28.9,0,53.5,6.4,74,19.1
		c20.5,12.8,36.1,31.4,46.8,55.9s16,54,16,88.5v243.6h-78.9L2639.6,1130.1L2639.6,1130.1z"/>
	<path class="st0" d="M2767.8,972h180.9v71.1h-180.9V972z M2831.8,1348.4c-15.1-17.9-22.6-44.4-22.6-79.4V855.3h78.9v414.4
		c0,9.8,1.9,17.3,5.8,22.6c3.9,5.3,9.5,7.9,17,7.9h37.9v75h-45.6C2870.7,1375.2,2846.9,1366.3,2831.8,1348.4z"/>
	<path class="st0" d="M3017.4,811.2h78.9v78.9h-78.9V811.2z M3017.4,972h78.9v401.3h-78.9V972z"/>
	<path class="st0" d="M3145.6,972h180.9v71.1h-180.9V972z M3209.6,1348.4c-15.1-17.9-22.6-44.4-22.6-79.4V855.3h78.9v414.4
		c0,9.8,1.9,17.3,5.8,22.6c3.9,5.3,9.5,7.9,17,7.9h37.9v75H3281C3248.4,1375.2,3224.7,1366.3,3209.6,1348.4z"/>
	<path class="st0" d="M3395.2,811.2h78.9v78.9h-78.9V811.2z M3395.2,972h78.9v401.3h-78.9V972z"/>
</g>
<text transform="matrix(1 0 0 1 1761.0972 917.2466)" class="st0 st1 st2">Made with</text>
</svg>
