<svg xmlns="http://www.w3.org/2000/svg" viewBox="0 0 50 50"><defs><style>.cls-1{fill:#ff4545;}</style></defs><title>code</title><g id="Calque_2" data-name="Calque 2"><g id="Calque_1-2" data-name="Calque 1"><path class="cls-1" d="M28.5,17.6a.9.9,0,0,0-1.1.21.69.69,0,0,0-.4.52l-.2.42-4,10.73-3.6,9.69a1.42,1.42,0,0,0,.7,1.66,1.09,1.09,0,0,0,1.5-.73l1.4-3.75L27.4,24l1.8-4.79a.67.67,0,0,0,.1-.42A1.39,1.39,0,0,0,28.5,17.6Z"/><path class="cls-1" d="M33.7,21.67a1.23,1.23,0,0,0,0,1.77L35.2,25l3.5,3.75L35.2,32.5l-1.5,1.56a1.23,1.23,0,0,0,0,1.77,1.16,1.16,0,0,0,1.5.11c.1,0,.1-.11.2-.11l5.9-6.14a1.23,1.23,0,0,0,0-1.77l-5.9-6.15c-.1-.1-.1-.1-.2-.1A.92.92,0,0,0,33.7,21.67Z"/><path class="cls-1" d="M16.5,23.33a1.23,1.23,0,0,0,0-1.77,1.12,1.12,0,0,0-1.7,0l-1.7,1.77L8.9,27.71a1.23,1.23,0,0,0,0,1.77l4.2,4.37,1.7,1.78a1.12,1.12,0,0,0,1.7,0,1.24,1.24,0,0,0,0-1.78l-3.4-3.54-1.7-1.77,1.7-1.77Z"/><path class="cls-1" d="M50,3.75A3.66,3.66,0,0,0,46.4,0H3.6A4.59,4.59,0,0,0,2.4.21,3.72,3.72,0,0,0,0,3.75H0v42.5A3.66,3.66,0,0,0,3.6,50H46.4A3.66,3.66,0,0,0,50,46.25V3.75Zm-2.4,15v27.5a1.18,1.18,0,0,1-1.2,1.25H3.6a1.18,1.18,0,0,1-1.2-1.25V12.5H47.7v6.25Zm0-8.75H2.4V3.75h0A1.18,1.18,0,0,1,3.6,2.5H46.5a1.18,1.18,0,0,1,1.2,1.25h0V10Z"/><path class="cls-1" d="M13.1,5a1.18,1.18,0,0,0-1.2,1.25,1.2,1.2,0,1,0,2.4,0A1.18,1.18,0,0,0,13.1,5Z"/><ellipse class="cls-1" cx="6" cy="6.25" rx="1.2" ry="1.25"/><ellipse class="cls-1" cx="9.5" cy="6.25" rx="1.2" ry="1.25"/></g></g></svg>