<svg xmlns="http://www.w3.org/2000/svg" viewBox="0 0 50 50"><defs><style>.cls-1{fill:#ff4545;}</style></defs><title>design</title><g id="Calque_2" data-name="Calque 2"><g id="Calque_1-2" data-name="Calque 1"><g id="Website"><g id="Home"><path id="UX_UI" data-name="UX/UI" class="cls-1" d="M41.52,45.85l4.35-4.36,1.35,5.71ZM26.67,31.53,25,29.87l-5-5-1.66-1.66L8.2,13.05l5-5L23.35,18.24,25,19.9l5,5,1.67,1.66L44.53,39.41l-5,5ZM10.38,44.6l-4,1.66L3.74,43.57l1.66-4L18.47,26.54l5,5ZM3.22,8.07a1.25,1.25,0,0,1,0-1.66L6.54,3.09a1.25,1.25,0,0,1,1.66,0l3.32,3.32-5,5Zm35.7-2,5,5L31.66,23.33l-5-5Zm6.23-3.63h0L47.64,5h0L44.32,8.28,41.83,5.79Zm2.7,37.05L33.32,25l9.75-9.76.94.94a1.27,1.27,0,0,1,0,1.66l-4.57,4.56a1.17,1.17,0,1,0,1.66,1.66l4.57-4.56a3.58,3.58,0,0,0,0-5l-.94-.93.83-.83,1.66-1.66L46,9.83,49.3,6.51a2.32,2.32,0,0,0,0-3.32L46.81.7a2.32,2.32,0,0,0-3.32,0L40.17,4,38.92,2.78,37.26,4.44h0L25,16.68,9.86,1.53a3.57,3.57,0,0,0-5,0L1.56,4.85a3.57,3.57,0,0,0,0,5l3.32,3.33.31.31,1.35,1.35L16.71,25,3.32,38.38.83,44.19l1.66,1.66L0,48.34,1.66,50l2.49-2.49,1.66,1.66,5.81-2.49L25,33.29,37.88,46.16l1.66,1.66,8.51,2A1.36,1.36,0,0,0,49.82,48Z"/></g></g></g></g></svg>