<svg xmlns="http://www.w3.org/2000/svg" viewBox="0 0 360 360"><defs><style>.cls-1{fill:#ff4545;}.cls-2{fill:#1b1b1b;}</style></defs><title>Fichier 1</title><g id="Calque_2" data-name="Calque 2"><g id="Calque_1-2" data-name="Calque 1"><path class="cls-1" d="M.3,220l-.3-.16V360H116C72,287.71.3,220,.3,220Z"/><path class="cls-1" d="M73,0H0V140.45l50.47,62.72C25.63,78.09,64,13.09,73,0Z"/><path class="cls-1" d="M360,0H257.26c51.48,133.12-53,224.5-53,224.5,38.25,11,160.25,11.5,149.75,28s-116.75,1.25-157-2.75-74.5,11.5-74.5,11.5c9.69,49.44,49.15,85.19,66.38,98.75H360Z"/><path class="cls-1" d="M111.47,226.83s55.33,3.34,85-71.66c38.64-84.42,8.89-143.39,2-155.17H130.85C120.12,12.56,109,32.77,102.47,65.17,86.8,142.83,111.47,226.83,111.47,226.83Z"/><path class="cls-2" d="M122.55,261.25s34.25-15.5,74.5-11.5,146.5,19.25,157,2.75-111.5-17-149.75-28c0,0,104.44-91.38,53-224.5H198.47c6.89,11.78,36.64,70.75-2,155.17-29.67,75-85,71.66-85,71.66s-24.67-84-9-161.66C109,32.77,120.12,12.56,130.85,0H73C64,13.09,25.63,78.09,50.47,203.17L0,140.45v79.39l.3.16S72,287.71,116,360h73C171.7,346.44,132.24,310.69,122.55,261.25Z"/></g></g></svg>