<svg xmlns="http://www.w3.org/2000/svg" viewBox="0 0 94.61 49.38"><defs><style>.cls-1{fill:#ff4545;}</style></defs><title>Fichier 1</title><g id="Calque_2" data-name="Calque 2"><g id="Calque_1-2" data-name="Calque 1"><path class="cls-1" d="M49.09,33.57c-1,.1-2,.1-3,.21a108.29,108.29,0,0,0-10.91,1.48,91.88,91.88,0,0,0-12.35,3.23c-.58.22-1.11.48-1.7.69-.42.16-.69.11-.9-.16a.71.71,0,0,1,.21-.9,6.63,6.63,0,0,1,1.17-.84A33.71,33.71,0,0,1,24.82,36,108.29,108.29,0,0,1,39.5,32.61c3.6-.53,7.26-.95,10.92-1.22a.6.6,0,0,0,.47-.26c2.18-2.86,4.35-5.78,6.52-8.64a.48.48,0,0,0,.11-.37.94.94,0,0,1,.79-1.22.87.87,0,0,0,.59-.37A18.66,18.66,0,0,0,60,19l-.32.16c-2.23,1.12-4.5,2.23-6.78,3.29a14.33,14.33,0,0,1-2.18.74,3.23,3.23,0,0,1-1,.11,1.48,1.48,0,0,1-1.49-1.43,4.37,4.37,0,0,1,.11-1.22,2.63,2.63,0,0,1,.1-.43,3.5,3.5,0,0,1-.37.22c-1.06.58-2.12,1.16-3.18,1.69a4,4,0,0,1-1.37.37,1,1,0,0,1-1.06-.42,1.13,1.13,0,0,1,0-1.22,3.47,3.47,0,0,1,.69-.85,13,13,0,0,1,6.94-3.39,3.31,3.31,0,0,0,2.07-.69.72.72,0,0,1,.9,0,.74.74,0,0,1,.16.9,4.51,4.51,0,0,1-.43.85s-.1.11-.1.11c-.38,0-.53.31-.75.58-.58.69-1.16,1.38-1.69,2.12a4.87,4.87,0,0,0-.37.85l.1.1a2.87,2.87,0,0,0,.69-.16,43.88,43.88,0,0,0,4.45-2c2.65-1.38,5.2-2.86,7.79-4.29a2.43,2.43,0,0,0,.8-.69A68.76,68.76,0,0,1,72.3,5.85c1-.74,2-1.32,3-2a3.25,3.25,0,0,1,1.17-.37A1.09,1.09,0,0,1,77.71,4.9a3.38,3.38,0,0,1-1,1.75c-.69.74-1.37,1.53-2.12,2.22a60.59,60.59,0,0,1-10.44,7.58,2.77,2.77,0,0,0-.74.64c-.74.9-1.48,1.85-2.22,2.81-.06.1-.11.15-.27.37a1.69,1.69,0,0,1,.32-.11c2.54-1.27,5.14-2.54,7.68-3.82a5,5,0,0,1,.53-.31.63.63,0,0,1,.9.16c.22.26.11.63-.21.9a12,12,0,0,0-2,2.12,2.51,2.51,0,0,0-.53,1.37l.64-.15c.85-.43,1.69-.85,2.54-1.33,1.38-.85,2.7-1.75,4.08-2.6a1.75,1.75,0,0,1,.53-.26.63.63,0,0,1,.74.21.73.73,0,0,1,0,.8,2,2,0,0,0-.31.37c-.69.79-1.38,1.59-2,2.38a5.74,5.74,0,0,0-.48,1s.06.05.06.1a2.28,2.28,0,0,0,.58,0l3.29-1a35.67,35.67,0,0,1,6.88-1.43,19.51,19.51,0,0,1,8.17,1,6.23,6.23,0,0,1,1.53.8,1.5,1.5,0,0,1,.69,1.32c0,.21,0,.42-.26.48s-.38-.11-.43-.32a1.7,1.7,0,0,0-1.11-1.06,16.9,16.9,0,0,0-4-.85,18.1,18.1,0,0,0-7.36.64c-2.12.53-4.19,1.22-6.26,1.75a6.23,6.23,0,0,1-1.64.26A1.49,1.49,0,0,1,72,20.58a2.94,2.94,0,0,1,.11-.42,2.62,2.62,0,0,1-.37.21c-.9.48-1.75,1-2.7,1.43a4.64,4.64,0,0,1-1.17.32,1.35,1.35,0,0,1-1.54-1.64,10.68,10.68,0,0,1,.32-1.06c0-.11.11-.21.16-.37l-.42.21c-2,.95-3.92,2-5.83,2.91a3.62,3.62,0,0,0-1.11.48,3.13,3.13,0,0,0-.32,1.11,18.34,18.34,0,0,1-2,4.24c-.59,1-1.22,1.91-1.81,2.81a2.16,2.16,0,0,1-.21.37h.48A103.5,103.5,0,0,1,73.73,32.4,79.67,79.67,0,0,1,90.11,37c.84.32,1.64.79,2.49,1.16.37.22.53.48.47.8s-.37.53-.79.63a.8.8,0,0,1-.85-.42,1.4,1.4,0,0,0-.42-.42A55.68,55.68,0,0,0,84,36.22a77.05,77.05,0,0,0-18-2.92c-4-.21-7.95-.21-11.92-.16a.78.78,0,0,0-.64.32A172.35,172.35,0,0,1,42.1,47.82c-.32.37-.69.74-1.06,1.11a2.58,2.58,0,0,1-.48.37.63.63,0,0,1-1-.58,3.31,3.31,0,0,1,.21-1,39.33,39.33,0,0,1,2-3.7,113.91,113.91,0,0,1,7-10.23,1.22,1.22,0,0,0,.22-.32C49.15,33.62,49.15,33.57,49.09,33.57ZM41.67,47.24a.22.22,0,0,0,.11,0c3.71-4.45,7.15-9.06,10.49-13.83-.53-.05-.9-.05-1.22.42-.63,1-1.32,1.81-2,2.71a106.18,106.18,0,0,0-6.94,10A2.4,2.4,0,0,0,41.67,47.24ZM68,12.11l.05.05c0-.05.11-.05.21-.11a46.67,46.67,0,0,0,6.84-5.3,15.8,15.8,0,0,0,1.27-1.43c.11-.1.11-.21.16-.31s-.11-.06-.11-.11C72.94,6.59,70.5,9.4,68,12.11ZM57,26a.17.17,0,0,1-.11-.05c-1.32,1.75-2.65,3.55-4,5.35.38,0,.69.21.91-.16l3-4.77A1.53,1.53,0,0,0,57,26Zm-7.84-7.63c-1.33.21-4.77,2.23-5.09,3A21.32,21.32,0,0,0,49.15,18.41Z"/><path class="cls-1" d="M28.37,23.76l.64.16a137.66,137.66,0,0,1,13.62,3.55c1.48.48,2.91,1.12,4.4,1.7l.31.16c.27.16.43.37.27.63a.5.5,0,0,1-.64.32c-.16,0-.26-.1-.42-.1a133.42,133.42,0,0,0-17.7-4.61c-1.32-.27-2.65-.38-4-.53a4.82,4.82,0,0,1-.85-.11c-.53-.16-.74.11-1.06.53A204.43,204.43,0,0,0,12.69,43.69,12.39,12.39,0,0,0,11.42,47c-.06.22-.16.37-.43.37s-.37-.21-.42-.42a3.72,3.72,0,0,1,.26-2c.59-1.38,1.12-2.76,1.75-4.08A160.3,160.3,0,0,1,24.19,20.27a90.23,90.23,0,0,1,7-9.22,19.68,19.68,0,0,1,3.66-3.29,8.74,8.74,0,0,1,1.75-.9,1.82,1.82,0,0,1,1.48,0A1.32,1.32,0,0,1,39,8.18a.52.52,0,0,1-.31.43c-.06.05-.32-.11-.37-.27a.49.49,0,0,0-.64-.21,8.32,8.32,0,0,0-1.17.53,18.32,18.32,0,0,0-3.28,2.81,64.74,64.74,0,0,0-5.09,6.36C27.05,19.37,26,20.9,25,22.44a2.57,2.57,0,0,0-.26.42h.16c2.91-.9,5.77-1.8,8.69-2.75a92.18,92.18,0,0,0,12.08-4.93,32.08,32.08,0,0,0,5.19-3.13,12,12,0,0,0,2.44-2.49,10.19,10.19,0,0,0,.85-1.64,2.54,2.54,0,0,0-.48-2.49A5.52,5.52,0,0,0,51.9,4.05a16.86,16.86,0,0,0-5-1.59A49.63,49.63,0,0,0,36.06,2a68.71,68.71,0,0,0-9.91,1.17A57.86,57.86,0,0,0,8,9.51a23.15,23.15,0,0,0-4.29,3.18,7.67,7.67,0,0,0-1.64,2.22,2.36,2.36,0,0,0,.79,3.29,13,13,0,0,0,2.39,1.27,29.36,29.36,0,0,0,6.78,1.59c1.59.21,3.13.37,4.72.53a4.43,4.43,0,0,1,.79.16.52.52,0,0,1,.48.53c0,.32-.26.32-.53.37a25.06,25.06,0,0,1-4.5.05A32.64,32.64,0,0,1,4.9,21.17a10.77,10.77,0,0,1-3-1.54,4.37,4.37,0,0,1-1.86-3,3.9,3.9,0,0,1,.59-2.44,10.56,10.56,0,0,1,2.33-3A31.22,31.22,0,0,1,10,6.49,58.32,58.32,0,0,1,23.07,1.83,68.25,68.25,0,0,1,40.45,0a41.33,41.33,0,0,1,8.11,1A14,14,0,0,1,52.8,2.67a11.32,11.32,0,0,1,1.75,1.38,4.37,4.37,0,0,1,1,4.93,9.23,9.23,0,0,1-2.12,3.13,20.73,20.73,0,0,1-5.09,3.7,66.9,66.9,0,0,1-10.76,4.83c-2.91,1.06-5.88,2-8.79,3-.11.06-.21.06-.32.11S28.37,23.71,28.37,23.76Z"/><path class="cls-1" d="M89.15,27.47a.79.79,0,0,1-.85-.58.75.75,0,0,1,.59-.79,3.15,3.15,0,0,1,.63-.22.71.71,0,0,1,.85.27.84.84,0,0,1-.1.85A1.41,1.41,0,0,1,89.15,27.47Z"/></g></g></svg>